<?xml version="1.0" encoding="utf-8"?>
<!-- Generator: Adobe Illustrator 26.3.1, SVG Export Plug-In . SVG Version: 6.00 Build 0)  -->
<svg version="1.1" xmlns="http://www.w3.org/2000/svg" xmlns:xlink="http://www.w3.org/1999/xlink" x="0px" y="0px"
	 viewBox="0 0 288 560" style="enable-background:new 0 0 288 560;" xml:space="preserve">
<style type="text/css">
	.st0{fill:#FFFFFF;}
	.st1{filter:url(#Adobe_OpacityMaskFilter);}
	.st2{opacity:0.75;mask:url(#SVGID_1_);}
	.st3{filter:url(#Adobe_OpacityMaskFilter_00000121256439351451986860000010708347410742864266_);}
	.st4{opacity:0.75;mask:url(#SVGID_00000018229060743544807630000014005951535904419968_);}
	.st5{filter:url(#Adobe_OpacityMaskFilter_00000010295494354724744160000012898597794304386726_);}
	.st6{opacity:0.75;mask:url(#SVGID_00000115476911842629565680000001498604580838153640_);}
	.st7{filter:url(#Adobe_OpacityMaskFilter_00000146457807530072237910000010653693914503106483_);}
	.st8{opacity:0.75;mask:url(#SVGID_00000073001794180389375130000017849696310015869314_);}
	.st9{filter:url(#Adobe_OpacityMaskFilter_00000106118897563575547790000015836736361719361440_);}
	.st10{opacity:0.75;mask:url(#SVGID_00000012464816247873103020000004693122569144416165_);}
	.st11{filter:url(#Adobe_OpacityMaskFilter_00000149372539809622952930000014859584697149885852_);}
	.st12{opacity:0.75;mask:url(#SVGID_00000001651442192973329720000012709067813658088859_);}
	.st13{opacity:0.15;fill:#FFFFFF;}
</style>
<g id="glow">
	<g>
		<g>
			<path class="st0" d="M160.9,318.5c-0.4,0.3-4.1-20.6,57.2-45.5c19.8-8.1,29.5-19.8,29.5-19.8s-2,14.8-17.6,26
				C212.4,291.8,163.8,304.8,160.9,318.5z"/>
		</g>
		<defs>
			<filter id="Adobe_OpacityMaskFilter" filterUnits="userSpaceOnUse" x="160.7" y="253.3" width="86.8" height="65.2">
				
					<feColorMatrix  type="matrix" values="-1 0 0 0 1  0 -1 0 0 1  0 0 -1 0 1  0 0 0 1 0" color-interpolation-filters="sRGB" result="source"/>
			</filter>
		</defs>
		<mask maskUnits="userSpaceOnUse" x="160.7" y="253.3" width="86.8" height="65.2" id="SVGID_1_">
			<g class="st1">
				
					<image style="overflow:visible;" width="92" height="70" xlink:href="7BE9BE9EE79E62F9.jpg"  transform="matrix(1 0 0 1 158 251)">
				</image>
			</g>
		</mask>
		<g class="st2">
			<path class="st0" d="M160.9,318.5c-0.4,0.3-4.1-20.6,57.2-45.5c19.8-8.1,29.5-19.8,29.5-19.8s-2,14.8-17.6,26
				C212.4,291.8,163.8,304.8,160.9,318.5z"/>
		</g>
	</g>
	<g>
		<g>
			<path class="st0" d="M223.3,265.2c0.3,1.1,7.1-49.1-26.9-58.3c0,0-18,25.5-0.5,53.3c0,0-4.5-17.2,6-32.6
				C201.9,227.5,211.2,226.8,223.3,265.2z"/>
		</g>
		<defs>
			
				<filter id="Adobe_OpacityMaskFilter_00000125584777594696507870000017246795143356723598_" filterUnits="userSpaceOnUse" x="188.2" y="206.9" width="35.9" height="58.3">
				
					<feColorMatrix  type="matrix" values="-1 0 0 0 1  0 -1 0 0 1  0 0 -1 0 1  0 0 0 1 0" color-interpolation-filters="sRGB" result="source"/>
			</filter>
		</defs>
		
			<mask maskUnits="userSpaceOnUse" x="188.2" y="206.9" width="35.9" height="58.3" id="SVGID_00000039855499035575124270000009190575995416238746_">
			<g style="filter:url(#Adobe_OpacityMaskFilter_00000125584777594696507870000017246795143356723598_);">
				
					<image style="overflow:visible;" width="41" height="64" xlink:href="7BE9BE9EE79E62FB.jpg"  transform="matrix(1 0 0 1 186 204)">
				</image>
			</g>
		</mask>
		<g style="opacity:0.75;mask:url(#SVGID_00000039855499035575124270000009190575995416238746_);">
			<path class="st0" d="M223.3,265.2c0.3,1.1,7.1-49.1-26.9-58.3c0,0-18,25.5-0.5,53.3c0,0-4.5-17.2,6-32.6
				C201.9,227.5,211.2,226.8,223.3,265.2z"/>
		</g>
	</g>
	<g>
		<g>
			<path class="st0" d="M208.3,274.6c0,0-20.1-31.8-65.3-18.7c0,0,12,27.4,39.8,26.6c0,0-17.3-8.2-20.5-18.2
				C162.2,264.3,197.6,262.8,208.3,274.6z"/>
		</g>
		<defs>
			
				<filter id="Adobe_OpacityMaskFilter_00000081628243944983459520000006979253503174586273_" filterUnits="userSpaceOnUse" x="142.9" y="252.7" width="65.3" height="29.8">
				
					<feColorMatrix  type="matrix" values="-1 0 0 0 1  0 -1 0 0 1  0 0 -1 0 1  0 0 0 1 0" color-interpolation-filters="sRGB" result="source"/>
			</filter>
		</defs>
		
			<mask maskUnits="userSpaceOnUse" x="142.9" y="252.7" width="65.3" height="29.8" id="SVGID_00000136387681287117765910000002323969070419326094_">
			<g style="filter:url(#Adobe_OpacityMaskFilter_00000081628243944983459520000006979253503174586273_);">
				
					<image style="overflow:visible;" width="71" height="35" xlink:href="7BE9BE9EE79E62FE.jpg"  transform="matrix(1 0 0 1 140 250)">
				</image>
			</g>
		</mask>
		<g style="opacity:0.75;mask:url(#SVGID_00000136387681287117765910000002323969070419326094_);">
			<path class="st0" d="M208.3,274.6c0,0-20.1-31.8-65.3-18.7c0,0,12,27.4,39.8,26.6c0,0-17.3-8.2-20.5-18.2
				C162.2,264.3,197.6,262.8,208.3,274.6z"/>
		</g>
	</g>
	<g>
		<g>
			<path class="st0" d="M228.3,264.5c-0.2,0.9,1.2-30.5-11.2-47.2c0,0,2.1-4.9,6.6-7.3C223.7,210,237.6,229.8,228.3,264.5z"/>
		</g>
		<defs>
			
				<filter id="Adobe_OpacityMaskFilter_00000183222056386816597720000009414199185307100292_" filterUnits="userSpaceOnUse" x="217.1" y="210" width="14.4" height="54.5">
				
					<feColorMatrix  type="matrix" values="-1 0 0 0 1  0 -1 0 0 1  0 0 -1 0 1  0 0 0 1 0" color-interpolation-filters="sRGB" result="source"/>
			</filter>
		</defs>
		
			<mask maskUnits="userSpaceOnUse" x="217.1" y="210" width="14.4" height="54.5" id="SVGID_00000110450035292465914750000010384448485258235309_">
			<g style="filter:url(#Adobe_OpacityMaskFilter_00000183222056386816597720000009414199185307100292_);">
				
					<image style="overflow:visible;" width="19" height="59" xlink:href="7BE9BE9EE79E62FF.jpg"  transform="matrix(1 0 0 1 215 208)">
				</image>
			</g>
		</mask>
		<g style="opacity:0.75;mask:url(#SVGID_00000110450035292465914750000010384448485258235309_);">
			<path class="st0" d="M228.3,264.5c-0.2,0.9,1.2-30.5-11.2-47.2c0,0,2.1-4.9,6.6-7.3C223.7,210,237.6,229.8,228.3,264.5z"/>
		</g>
	</g>
	<g>
		<g>
			<path class="st0" d="M210.3,271.1c0,0-17.7-18.5-7.5-40.8C202.8,230.2,217.9,244,210.3,271.1z"/>
		</g>
		<defs>
			
				<filter id="Adobe_OpacityMaskFilter_00000008827316854591256510000003198255498495699626_" filterUnits="userSpaceOnUse" x="199.6" y="230.2" width="12.8" height="40.8">
				
					<feColorMatrix  type="matrix" values="-1 0 0 0 1  0 -1 0 0 1  0 0 -1 0 1  0 0 0 1 0" color-interpolation-filters="sRGB" result="source"/>
			</filter>
		</defs>
		
			<mask maskUnits="userSpaceOnUse" x="199.6" y="230.2" width="12.8" height="40.8" id="SVGID_00000175300994146715453630000011492178584037415047_">
			<g style="filter:url(#Adobe_OpacityMaskFilter_00000008827316854591256510000003198255498495699626_);">
				
					<image style="overflow:visible;" width="18" height="46" xlink:href="7BE9BE9EE79E62FA.jpg"  transform="matrix(1 0 0 1 197 228)">
				</image>
			</g>
		</mask>
		<g style="opacity:0.75;mask:url(#SVGID_00000175300994146715453630000011492178584037415047_);">
			<path class="st0" d="M210.3,271.1c0,0-17.7-18.5-7.5-40.8C202.8,230.2,217.9,244,210.3,271.1z"/>
		</g>
	</g>
	<g>
		<g>
			<path class="st0" d="M201.7,278.1c0,0-6-11.1-35.3-11.5C166.4,266.7,176.4,280.1,201.7,278.1z"/>
		</g>
		<defs>
			
				<filter id="Adobe_OpacityMaskFilter_00000177461262993852867280000017536142006561909667_" filterUnits="userSpaceOnUse" x="166.4" y="266.7" width="35.3" height="11.7">
				
					<feColorMatrix  type="matrix" values="-1 0 0 0 1  0 -1 0 0 1  0 0 -1 0 1  0 0 0 1 0" color-interpolation-filters="sRGB" result="source"/>
			</filter>
		</defs>
		
			<mask maskUnits="userSpaceOnUse" x="166.4" y="266.7" width="35.3" height="11.7" id="SVGID_00000106868640353138785190000015065673419758769319_">
			<g style="filter:url(#Adobe_OpacityMaskFilter_00000177461262993852867280000017536142006561909667_);">
				
					<image style="overflow:visible;" width="40" height="17" xlink:href="7BE9BE9EE79E62F5.jpg"  transform="matrix(1 0 0 1 164 264)">
				</image>
			</g>
		</mask>
		<g style="opacity:0.75;mask:url(#SVGID_00000106868640353138785190000015065673419758769319_);">
			<path class="st0" d="M201.7,278.1c0,0-6-11.1-35.3-11.5C166.4,266.7,176.4,280.1,201.7,278.1z"/>
		</g>
	</g>
</g>
<g id="Fire">
	<path class="st0" d="M247.8,299.5c0,54-41.2,98.3-93.8,103.3c-42,0.3-53.8-24.8-48.1-50.4c11.8,4.8,24.7,7.4,38.2,7.4
		c51.1,0,93.4-37.9,100.3-87.1C246.6,281.3,247.8,290.3,247.8,299.5z"/>
	<path class="st0" d="M109.4,285.6c1-0.2,32.8-7.7,48.6-27.7c0,0,0.6,28.6-30.7,57.9c-10.7,10-18.5,23.4-21.4,36.7
		c-5.7,25.5,6.1,50.7,48.1,50.4c-3.3,0.3-6.6,0.5-10,0.5c-57.3,0-103.8-46.5-103.8-103.8c0-11.4,1.1-21.8,2.9-31.1
		c11-54.2,49.9-77.4,74.3-107.6c18.3-22.7,28.3-49.3,12.2-96.1c0,0,36.1,39.2,38.2,95.4c0.5,11.8-0.6,24.4-3.8,37.6
		C157.3,225.2,141.1,255.1,109.4,285.6z"/>
	<path class="st13" d="M101.1,305.1c34,9,56.9-47.2,56.9-47.2s0.6,28.6-30.7,57.9c-10.7,10-18.5,23.4-21.4,36.7
		c-5.7,25.5,6.1,50.7,48.1,50.4c-1.8,0.2-3.7,0.3-5.5,0.4h0c-16.3,0.1-37.6-5.6-53.9-24.4C67.7,348,58.1,285.8,113.7,234
		c9.5-11.6,27.6-29.8,33.9-66.5c8.6-50.9-11-90.4-17.8-102.8c0,0,36.1,39.2,38.2,95.4c0.5,11.8-0.6,24.4-3.8,37.6
		c-6.7,27.5-23,57.5-54.7,87.9C95.1,297.3,101.1,305.1,101.1,305.1z"/>
</g>
</svg>
